<svg height="512pt" viewBox="0 0 512 512.0013" width="512pt" xmlns="http://www.w3.org/2000/svg"><path d="m322.921875 127.796875 88.398437 42.023437c19.378907 9.210938 23.464844 35.011719 7.882813 49.757813l-71.089844 67.28125c-5.101562 4.828125-8.382812 11.269531-9.289062 18.234375l-12.648438 97.058594c-2.773437 21.277344-26.046875 33.132812-44.886719 22.871094l-85.957031-46.816407c-6.167969-3.359375-13.304687-4.492187-20.210937-3.203125l-96.214844 17.964844c-21.09375 3.9375-39.5625-14.53125-35.625-35.625l17.964844-96.214844c1.289062-6.90625.160156-14.042968-3.203125-20.210937l-46.816407-85.953125c-10.261718-18.84375 1.597657-42.117188 22.875-44.890625l97.054688-12.648438c6.964844-.90625 13.40625-4.1875 18.234375-9.289062l67.28125-71.085938c14.75-15.585937 40.546875-11.5 49.757813 7.878907l42.023437 88.398437c3.015625 6.34375 8.125 11.453125 14.46875 14.46875zm0 0" fill="#fce68d"/><path d="m195.332031 378.207031 85.957031 46.816407c18.84375 10.261718 42.117188-1.59375 44.886719-22.871094l3.191407-24.496094c-170.734376-19.125-199.671876-180.628906-189.777344-282.625-2.664063 1.183594-5.496094 2.011719-8.433594 2.394531l-97.058594 12.648438c-21.277344 2.773437-33.132812 26.046875-22.871094 44.886719l46.816407 85.957031c3.359375 6.167969 4.492187 13.304687 3.203125 20.210937l-17.964844 96.214844c-3.9375 21.09375 14.53125 39.5625 35.625 35.625l96.214844-17.964844c6.90625-1.289062 14.042968-.15625 20.210937 3.203125zm0 0" fill="#f0d87c"/><path d="m273.0625 172.9375 48.457031 23.035156c10.621094 5.046875 12.859375 19.191406 4.316407 27.273438l-38.964844 36.882812c-2.796875 2.644532-4.59375 6.175782-5.09375 9.996094l-6.933594 53.203125c-1.519531 11.660156-14.273438 18.160156-24.605469 12.535156l-47.117187-25.660156c-3.378906-1.84375-7.292969-2.460937-11.078125-1.757813l-52.742188 9.847657c-11.5625 2.160156-21.6875-7.964844-19.527343-19.527344l9.84375-52.742187c.707031-3.785157.089843-7.695313-1.753907-11.078126l-25.664062-47.117187c-5.625-10.332031.875-23.085937 12.539062-24.605469l53.203125-6.933594c3.816406-.5 7.347656-2.296874 9.996094-5.09375l36.878906-38.964843c8.085938-8.542969 22.226563-6.304688 27.277344 4.316406l23.035156 48.460937c1.652344 3.472657 4.453125 6.273438 7.933594 7.929688zm0 0" fill="#f7c67b"/><path d="m193.007812 308.308594c-34.828124-42.128906-50-97.085938-53.996093-148.25l-24.273438 3.160156c-11.664062 1.519531-18.164062 14.277344-12.539062 24.605469l25.664062 47.121093c1.84375 3.378907 2.460938 7.292969 1.753907 11.078126l-9.84375 52.742187c-2.160157 11.5625 7.964843 21.6875 19.527343 19.527344l52.742188-9.847657c.320312-.058593.640625-.097656.964843-.136718zm0 0" fill="#ebb460"/><path d="m376.105469 61.78125 13.5-28.398438c2.960937-6.222656 11.246093-7.535156 15.984375-2.53125l21.613281 22.835938c1.550781 1.640625 3.621094 2.695312 5.855469 2.984375l31.179687 4.0625c6.835938.890625 10.644531 8.367187 7.347657 14.421875l-15.039063 27.613281c-1.078125 1.980469-1.445313 4.273438-1.027344 6.492188l5.769531 30.90625c1.265626 6.777343-4.667968 12.707031-11.445312 11.445312l-30.90625-5.769531c-2.21875-.414062-4.511719-.054688-6.492188 1.027344l-27.613281 15.039062c-6.050781 3.296875-13.527343-.511718-14.417969-7.347656l-4.0625-31.179688c-.292968-2.234374-1.347656-4.304687-2.984374-5.855468l-22.835938-21.613282c-5.007812-4.738281-3.695312-13.027343 2.53125-15.984374l28.394531-13.5c2.039063-.96875 3.679688-2.609376 4.648438-4.648438zm0 0" fill="#f7c67b"/><path d="m418.9375 145.84375 30.90625 5.769531c3.933594.734375 7.570312-.964843 9.691406-3.835937-55.601562-13.015625-76.683594-58.445313-79.375-94.519532l-4.054687 8.523438c-.96875 2.039062-2.609375 3.679688-4.648438 4.648438l-28.394531 13.5c-6.226562 2.957031-7.539062 11.246093-2.535156 15.984374l22.835937 21.613282c1.640625 1.550781 2.695313 3.617187 2.984375 5.855468l4.0625 31.179688c.894532 6.832031 8.367188 10.640625 14.421875 7.34375l27.613281-15.039062c1.980469-1.078126 4.273438-1.4375 6.492188-1.023438zm0 0" fill="#ebb460"/><path d="m81.8125 359.808594 26.972656-9.59375c5.914063-2.101563 12.09375 2.390625 11.921875 8.664062l-.785156 28.613282c-.058594 2.054687.59375 4.066406 1.847656 5.695312l17.457031 22.6875c3.828126 4.972656 1.464844 12.238281-4.550781 14.011719l-27.460937 8.09375c-1.96875.582031-3.679688 1.824219-4.84375 3.519531l-16.179688 23.613281c-3.550781 5.175781-11.1875 5.175781-14.738281 0l-16.179687-23.613281c-1.164063-1.695312-2.871094-2.9375-4.84375-3.519531l-27.460938-8.09375c-6.015625-1.773438-8.378906-9.039063-4.550781-14.011719l17.457031-22.6875c1.253906-1.628906 1.90625-3.640625 1.847656-5.695312l-.785156-28.613282c-.175781-6.273437 6.007812-10.765625 11.921875-8.664062l26.96875 9.59375c1.9375.6875 4.050781.6875 5.984375 0zm0 0" fill="#7397da"/><path d="m52.195312 351.402344-3.339843-1.1875c-5.910157-2.101563-12.09375 2.390625-11.917969 8.660156l.785156 28.617188c.054688 2.054687-.597656 4.066406-1.847656 5.691406l-17.457031 22.6875c-3.828125 4.976562-1.46875 12.242187 4.550781 14.015625l27.460938 8.09375c1.96875.582031 3.679687 1.824219 4.839843 3.515625l16.183594 23.613281c3.546875 5.179687 11.1875 5.179687 14.734375 0l13.230469-19.300781c-36.710938-10.902344-51.496094-61.5625-47.222657-94.40625zm0 0" fill="#6988c4"/><path d="m469.726562 188.742188-7.210937 6.390624c-1.691406 1.5-4.042969 1.949219-6.199219 1.273438-1.257812-.394531-2.535156-.742188-3.832031-1.039062-14.148437-3.210938-28.996094-.164063-40.734375 8.363281-12.511719 9.085937-24.394531 19.234375-35.328125 30.164062-10.933594 10.933594-21.082031 22.816407-30.164063 35.324219-5.664062 7.796875-8.902343 16.964844-9.496093 26.386719-.457031 7.230469-3.644531 14.019531-8.765625 19.140625l-13.265625 13.265625c-5.121094 5.121093-11.910157 8.308593-19.140625 8.765625-9.421875.59375-18.589844 3.832031-26.386719 9.496094-12.507813 9.082031-24.390625 19.230468-35.324219 30.164062-10.929687 10.933594-21.078125 22.816406-30.164062 35.328125-8.527344 11.738281-11.574219 26.585937-8.363282 40.738281.292969 1.292969.640626 2.570313 1.035157 3.828125.679687 2.15625.230469 4.507813-1.269531 6.199219l-6.394532 7.210938c-3.316406 3.746093-3.144531 9.425781.394532 12.960937l4.269531 4.273437c3.507812 3.503907 9.121093 3.710938 12.871093.46875l3.578126-3.089843c2.140624-1.847657 5.226562-2.023438 7.617187-.507813.984375.628906 2 1.226563 3.035156 1.785156l19.105469 10.339844c13.617188 7.367188 28.925781 10.035156 44.242188 7.707032 15.191406-2.308594 29.144531-9.71875 40.007812-20.582032l16.695312-16.695312c10.863282-10.863282 18.273438-24.816406 20.582032-40.007813 2.328125-15.320312-.339844-30.628906-7.707032-44.242187l-6.902343-12.757813c-1.515625-2.800781-1.011719-6.265625 1.238281-8.519531l13.113281-13.109375c2.25-2.25 5.714844-2.757813 8.515625-1.238281l12.757813 6.902344c13.617187 7.367187 28.925781 10.035156 44.242187 7.707031 15.1875-2.308594 29.144532-9.71875 40.007813-20.582031l16.695312-16.695313c10.867188-10.863281 18.273438-24.816406 20.582031-40.007813 2.328126-15.316406-.339843-30.628906-7.707031-44.242187l-10.335937-19.105469c-.355469-.65625-1.609375-2.699218-1.976563-3.351562-1.3125-2.339844-1.074219-5.253906.695313-7.300782l3.089844-3.578124c3.238281-3.75 3.035156-9.367188-.46875-12.871094l-4.273438-4.269532c-3.535156-3.535156-9.214844-3.707031-12.960938-.390624zm0 0" fill="#eb8d9a"/><path d="m361.121094 426.394531c.285156-1.863281.488281-3.726562.625-5.589843-78.265625 24.382812-119.648438-14.160157-132.574219-39.539063-9.144531 9.578125-17.695313 19.808594-25.460937 30.5-8.523438 11.738281-11.574219 26.585937-8.359376 40.738281.292969 1.292969.640626 2.570313 1.035157 3.828125.675781 2.15625.226562 4.507813-1.269531 6.199219l-6.394532 7.214844c-3.316406 3.742187-3.144531 9.421875.394532 12.960937l4.269531 4.269531c3.503906 3.507813 9.121093 3.710938 12.871093.46875l3.578126-3.085937c2.140624-1.851563 5.226562-2.027344 7.613281-.507813.988281.628907 2.003906 1.222657 3.039062 1.785157l19.105469 10.339843c13.613281 7.367188 28.921875 10.035157 44.242188 7.703126 15.191406-2.308594 29.144531-9.714844 40.007812-20.578126l16.695312-16.695312c10.863282-10.867188 18.273438-24.820312 20.582032-40.011719zm0 0" fill="#d67c88"/><path d="m319.269531 443.734375-18.097656 18.097656c-12.371094 12.371094-31.402344 15.144531-46.792969 6.816407l-19.101562-10.339844c-10.253906-5.546875-13.277344-18.855469-6.425782-28.285156 16.335938-22.496094 36.117188-42.273438 58.609376-58.613282 9.433593-6.847656 22.742187-3.828125 28.289062 6.425782l10.339844 19.105468c8.328125 15.386719 5.554687 34.417969-6.820313 46.792969zm0 0" fill="#495059"/><path d="m461.8125 301.191406-18.097656 18.097656c-12.371094 12.371094-31.402344 15.144532-46.792969 6.816407l-19.105469-10.339844c-10.25-5.546875-13.273437-18.855469-6.421875-28.285156 16.335938-22.496094 36.117188-42.273438 58.609375-58.609375 9.433594-6.851563 22.742188-3.832032 28.289063 6.421875l10.339843 19.105469c8.328126 15.390624 5.550782 34.421874-6.820312 46.792968zm0 0" fill="#495059"/><path d="m178.445312 214.46875c1.472657-8.359375-5.839843-16.636719-16.335937-18.484375-10.496094-1.851563-20.199219 3.425781-21.671875 11.78125-1.476562 8.359375 5.839844 16.636719 16.335938 18.484375 10.496093 1.851562 20.199218-3.425781 21.671874-11.78125zm0 0" fill="#eb8d9a"/><path d="m243.433594 225.953125c-1.476563 8.359375 5.839844 16.636719 16.335937 18.484375 10.496094 1.851562 20.199219-3.425781 21.671875-11.785156 1.472656-8.355469-5.839844-16.632813-16.335937-18.484375-10.496094-1.847657-20.199219 3.425781-21.671875 11.785156zm0 0" fill="#eb8d9a"/><path d="m374.25 322.363281 19.105469 10.339844c6.972656 3.773437 14.644531 5.609375 22.277343 5.609375 12.246094 0 24.386719-4.722656 33.386719-13.722656l18.097657-18.097656c14.605468-14.605469 17.941406-37.496094 8.109374-55.664063l-10.335937-19.105469c-3.675781-6.789062-10.097656-11.660156-17.625-13.371094-7.527344-1.710937-15.425781-.085937-21.667969 4.449219-23.167968 16.824219-43.445312 37.105469-60.273437 60.269531-4.535157 6.246094-6.15625 14.144532-4.445313 21.671876 1.710938 7.527343 6.582032 13.949218 13.371094 17.621093zm3.210938-30.476562c15.902343-21.890625 35.0625-41.050781 56.949218-56.949219 2.050782-1.488281 4.421875-2.257812 6.871094-2.257812.882812 0 1.773438.101562 2.664062.300781 3.359376.765625 6.109376 2.855469 7.75 5.882812l10.339844 19.105469c6.695313 12.375 4.425782 27.96875-5.523437 37.917969h-.003907l-18.09375 18.097656c-9.953124 9.949219-25.546874 12.222656-37.921874 5.523437l-19.105469-10.335937c-3.027344-1.640625-5.117188-4.394531-5.878907-7.753906-.765624-3.359375-.070312-6.742188 1.953126-9.53125zm-55.113282 82.378906c-3.675781-6.785156-10.097656-11.660156-17.621094-13.367187-7.53125-1.710938-15.429687-.089844-21.671874 4.445312-23.167969 16.824219-43.445313 37.105469-60.269532 60.273438-4.535156 6.242187-6.15625 14.140624-4.449218 21.667968 1.710937 7.523438 6.582031 13.949219 13.371093 17.621094l19.105469 10.339844c6.976562 3.773437 14.644531 5.605468 22.277344 5.605468 12.246094 0 24.390625-4.71875 33.390625-13.71875l18.09375-18.097656c14.609375-14.605468 17.941406-37.496094 8.113281-55.664062zm-8.382812 64.164063-18.09375 18.097656c-9.953125 9.949218-25.546875 12.222656-37.921875 5.527344l-19.105469-10.339844c-3.03125-1.640625-5.117188-4.394532-5.878906-7.75-.765625-3.359375-.070313-6.746094 1.953125-9.535156 15.902343-21.890626 35.0625-41.050782 56.949219-56.949219 2.050781-1.488281 4.421874-2.257813 6.871093-2.257813.882813 0 1.773438.101563 2.664063.304688 3.359375.761718 6.113281 2.851562 7.75 5.878906l10.339844 19.105469c6.699218 12.375 4.425781 27.96875-5.527344 37.917969zm-138.308594-254.546876c-4.082031-.71875-7.96875 2.003907-8.6875 6.082032l-1.1875 6.714844c-.71875 4.078124 2.007812 7.96875 6.085938 8.6875.441406.078124.878906.113281 1.308593.113281 3.574219 0 6.738281-2.558594 7.378907-6.199219l1.183593-6.710938c.722657-4.078124-2.003906-7.96875-6.082031-8.6875zm326.894531 52.160157-10.335937-19.105469c-.226563-.417969-.773438-1.339844-1.285156-2.199219-.128907-.214843-.257813-.425781-.371094-.613281l2.546875-2.945312c5.777343-6.691407 5.410156-16.828126-.84375-23.078126l-4.269531-4.273437c-6.332032-6.328125-16.539063-6.636719-23.238282-.699219l-6.722656 5.957032c-1.292969-.390626-2.597656-.738282-3.886719-1.03125-6.421875-1.457032-12.96875-1.773438-19.371093-1.042969-2.957032-10.410157-10.234376-19.210938-20.230469-23.964844l-8.609375-4.089844 10.097656-5.5c.464844-.253906 1.007812-.339843 1.527344-.242187l30.910156 5.773437c5.621094 1.046875 11.378906-.738281 15.414062-4.777343 4.039063-4.035157 5.828126-9.800782 4.777344-15.417969l-5.769531-30.90625c-.097656-.519531-.011719-1.0625.242187-1.527344l15.039063-27.613281c2.730469-5.015625 2.8125-11.046875.222656-16.136719-2.59375-5.089844-7.523437-8.570313-13.1875-9.308594l-31.175781-4.0625c-.527344-.066406-1.019531-.316406-1.382812-.703125l-21.613282-22.835937c-3.925781-4.148438-9.640625-6.089844-15.277344-5.195313-5.644531.890625-10.472656 4.503906-12.925781 9.664063l-13.5 28.394531c-.226562.476562-.613281.867188-1.09375 1.09375l-28.394531 13.5c-5.160156 2.453125-8.773438 7.285156-9.667969 12.925781s1.050781 11.351563 5.199219 15.277344l22.832031 21.613281c.386719.363282.636719.855469.703125 1.378906l1.703125 13.058594-34.472656-16.386718c-4.773437-2.269532-8.648437-6.144532-10.914063-10.914063l-42.023437-88.402344c-5.390625-11.332031-16.007813-19.273437-28.40625-21.238281-12.394531-1.960938-24.945313 2.304688-33.574219 11.421875l-67.28125 71.085937c-3.632812 3.839844-8.515625 6.328126-13.753906 7.011719l-53.492188 6.96875c-4.109374.535157-7.003906 4.300781-6.46875 8.40625.535157 4.109375 4.292969 7.007813 8.40625 6.46875l53.488282-6.972656c8.652344-1.125 16.714844-5.234375 22.714844-11.570313l67.28125-71.085937c5.300781-5.605469 12.710937-8.121094 20.332031-6.917969 7.621093 1.207032 13.890625 5.894532 17.203125 12.863282l42.023437 88.398437c3.742188 7.875 10.144531 14.277344 18.023438 18.023437l43.21875 20.542969.054687.414063c.734375 5.664062 4.214844 10.59375 9.304688 13.1875 2.472656 1.257812 5.164062 1.886718 7.859375 1.886718 2.851562 0 5.699219-.707031 8.277343-2.109374l1.234376-.671876 18.449218 8.769532c5.996094 2.851562 10.28125 7.902344 12.125 14.03125-4.535156 1.777344-8.871094 4.121094-12.886718 7.035156-12.828126 9.316406-25.015626 19.722656-36.222657 30.933594-11.210937 11.210937-21.617187 23.394531-30.929687 36.21875-6.445313 8.875-10.222656 19.359375-10.914063 30.320312-.335937 5.320313-2.675781 10.402344-6.585937 14.3125l-13.261719 13.261719c-3.910156 3.910156-8.992187 6.25-14.3125 6.585937-5.289063.335938-10.464844 1.394532-15.402344 3.117188 1.308594-2.5 2.195313-5.238281 2.570313-8.113281l6.933594-53.207031c.273437-2.097657 1.269531-4.058594 2.808593-5.515626l38.96875-36.878906c5.808594-5.5 8.527344-13.5 7.277344-21.398437-1.25-7.898438-6.3125-14.664063-13.535156-18.101563l-48.457031-23.035156c-1.914063-.910156-3.46875-2.464844-4.378907-4.375l-23.03125-48.457031c-3.4375-7.226563-10.203125-12.285157-18.101562-13.535157-7.898438-1.253906-15.898438 1.46875-21.398438 7.277344l-36.878906 38.96875c-1.457031 1.539063-3.417969 2.535156-5.515625 2.8125l-53.207031 6.929688c-7.929688 1.035156-14.832031 5.90625-18.464844 13.035156-3.628906 7.125-3.515625 15.574219.3125 22.597656l25.664063 47.117188c1.011718 1.859375 1.355468 4.03125.96875 6.113281l-9.847657 52.742187c-1.46875 7.863282 1.03125 15.933594 6.6875 21.589844s13.726563 8.15625 21.589844 6.6875l52.742187-9.847656c2.082032-.386719 4.253907-.042969 6.113282.96875l47.117187 25.664062c3.507813 1.910157 7.363281 2.886719 11.238281 2.941407-10.300781 7.941406-20.136718 16.570312-29.3125 25.742187-3.558593 3.558594-7.023437 7.226563-10.410156 10.96875l-19.246094-10.480468c-7.660156-4.171876-16.605468-5.589844-25.175781-3.988282l-46.011719 8.589844.472657-17.140625c.148437-5.417969-2.382813-10.554687-6.769531-13.742187-4.386719-3.1875-10.054688-4.007813-15.164063-2.1875l-26.96875 9.589843c-.3125.109375-.652344.109375-.960937 0l-24.917969-8.859375 15.195312-81.375c1.597657-8.574218.183594-17.515625-3.988281-25.175781l-46.816406-85.957031c-3.691406-6.773438-3.796875-14.601563-.296875-21.476563 3.503906-6.875 9.902343-11.390625 17.550781-12.386719l8.96875-1.167968c4.105469-.535156 7.003906-4.300782 6.46875-8.40625-.535156-4.105469-4.300781-7-8.40625-6.46875l-8.96875 1.167968c-12.445312 1.625-23.277344 9.269532-28.976562 20.453126-5.699219 11.183593-5.515626 24.441406.488281 35.460937l46.816406 85.957031c2.527344 4.636719 3.382813 10.054688 2.414063 15.246094l-15.753907 84.394531c-.660156.351563-1.300781.746094-1.910156 1.191407-4.386719 3.1875-6.917969 8.324218-6.769531 13.746093l.785156 28.613281c.011719.328126-.09375.65625-.292969.914063l-17.460937 22.6875c-3.304688 4.296875-4.277344 9.941406-2.601563 15.097656s5.777344 9.152344 10.980469 10.683594l27.457031 8.09375c.316407.09375.59375.292969.777344.566406l16.183594 23.613281c3.066406 4.472657 8.132812 7.140626 13.554687 7.140626s10.488282-2.667969 13.554688-7.140626l16.183594-23.613281c.183593-.273437.460937-.472656.773437-.566406l27.457031-8.09375c5.203125-1.53125 9.308594-5.523437 10.984375-10.683594 1.675781-5.15625.699219-10.800781-2.605469-15.097656l-15.523437-20.171875 46.851563-8.75c5.191406-.96875 10.605468-.109375 15.246093 2.417969l16.410157 8.9375c-3.636719 4.449219-7.148438 8.992187-10.511719 13.625-9.796875 13.488281-13.296875 30.546875-9.605469 46.804687.292969 1.292969.636719 2.597656 1.027344 3.886719l-5.957032 6.726563c-5.933593 6.699218-5.628906 16.90625.703126 23.234374l4.269531 4.273438c6.25 6.25 16.386719 6.621094 23.078125.839844l2.925781-2.527344c.929687.574219 1.878906 1.121094 2.832031 1.636719l19.105469 10.339843c11.53125 6.238282 24.148437 9.429688 37.03125 9.429688 3.949219 0 7.929687-.300781 11.910156-.90625 16.339844-2.484375 32.03125-10.542969 44.183594-22.691406l13.5625-13.566406c2.933594-2.929688 2.933594-7.679688.003906-10.605469-2.929687-2.929688-7.679687-2.929688-10.609375 0l-13.566406 13.566406c-9.902344 9.902344-22.628906 16.460937-35.832031 18.46875-13.699219 2.082031-27.371094-.300781-39.546875-6.886719l-19.101563-10.339844c-.875-.472656-1.742187-.984374-2.585937-1.519531-5.234375-3.328125-11.882813-2.863281-16.542969 1.160157l-3.574219 3.089843c-.773437.667969-1.945312.625-2.667968-.097656l-4.269532-4.269531c-.730468-.730469-.769531-1.910156-.082031-2.683594l6.390625-7.214844c3.203125-3.613281 4.28125-8.753906 2.816406-13.417968-.339844-1.078126-.636718-2.167969-.878906-3.242188-2.734375-12.042969-.140625-24.679688 7.113281-34.671875 8.855469-12.1875 18.746094-23.773437 29.402344-34.429687 10.65625-10.652344 22.238281-20.546876 34.429687-29.398438 6.566407-4.773438 14.332032-7.566406 22.453126-8.082031 8.964843-.566407 17.476562-4.453125 23.96875-10.945313l13.261718-13.265625c6.496094-6.492187 10.382813-15.003906 10.949219-23.96875.515625-8.117187 3.308594-15.882812 8.082031-22.453125 8.851563-12.1875 18.742188-23.773437 29.398438-34.425781 10.652344-10.65625 22.238281-20.550781 34.429687-29.402344 4.394531-3.191406 9.300781-5.480469 14.445313-6.8125.003906 0 .011718 0 .019531-.003906 6.542969-1.6875 13.46875-1.828125 20.207031-.300781 1.070313.246094 2.160156.539062 3.242188.878906 4.664062 1.464844 9.808594.386719 13.417968-2.8125l7.214844-6.394531c.773438-.683594 1.953125-.648438 2.683594.082031l4.273438 4.269531c.722656.722657.765624 1.894531.097656 2.667969l-3.089844 3.574219c-3.796875 4.394531-4.425781 10.777343-1.558594 15.882812.183594.320313.554688.945313.949219 1.605469.378906.636719.789063 1.316406.964844 1.640625l10.339843 19.101563c6.589844 12.179687 8.972657 25.855468 6.886719 39.546874-2.003906 13.203126-8.566406 25.929688-18.46875 35.832032l-16.695312 16.695312c-9.902344 9.902344-22.628907 16.460938-35.832031 18.46875-13.695313 2.082032-27.367188-.300781-39.546876-6.886718l-12.757812-6.90625c-5.675781-3.070313-12.824219-2.027344-17.386719 2.535156l-13.113281 13.109375c-4.5625 4.566406-5.601562 11.714843-2.53125 17.390625l6.902344 12.757812c6.589844 12.175782 8.96875 25.851563 6.886718 39.546875-.71875 4.738281-2.015624 9.429688-3.851562 13.941407-1.558594 3.835937.285156 8.210937 4.121094 9.773437 3.839844 1.558594 8.214844-.285156 9.773437-4.121094 2.28125-5.601562 3.890625-11.4375 4.789063-17.339843 2.574218-16.945313-.371094-33.871094-8.527344-48.941407l-6.796875-12.558593 12.792969-12.792969 12.5625 6.796875c15.070312 8.152344 31.988281 11.101562 48.9375 8.527344 16.34375-2.488282 32.035156-10.546876 44.183594-22.695313l16.695312-16.695313c12.148438-12.148437 20.207031-27.839843 22.695312-44.183593 2.585938-16.945313-.363281-33.867188-8.519531-48.9375zm-121.304687-80.722657c-.929688.507813-1.75.238282-2.152344.03125-.40625-.207031-1.105469-.710937-1.242188-1.757812l-4.0625-31.179688c-.511718-3.933593-2.382812-7.605468-5.265624-10.335937l-22.835938-21.613281c-.773438-.726563-.765625-1.589844-.695312-2.039063.070312-.445312.332031-1.269531 1.289062-1.722656l28.398438-13.5c3.582031-1.703125 6.496093-4.617187 8.199218-8.203125l13.5-28.398438c.457032-.953124 1.273438-1.214843 1.726563-1.289062.105469-.015625.234375-.027344.378906-.027344.46875 0 1.101563.136719 1.660156.722656l21.613281 22.835938c2.726563 2.882812 6.394532 4.75 10.332032 5.265625l31.179687 4.0625c1.050781.136719 1.554688.835937 1.761719 1.242187.203125.40625.476562 1.222657-.03125 2.15625l-15.039062 27.609376c-1.898438 3.484374-2.542969 7.554687-1.816407 11.457031l5.773438 30.90625c.191406 1.042969-.316407 1.738281-.636719 2.058593-.320312.324219-1.019531.832032-2.058594.636719l-30.90625-5.769531c-3.902344-.730469-7.972656-.085938-11.457031 1.8125zm-247.964844 265.125c.378906.496094.332031.988282.226562 1.316407-.105468.328125-.355468.753906-.953124.933593l-27.460938 8.09375c-3.613281 1.0625-6.777344 3.363282-8.90625 6.472657l-16.183594 23.613281c-.355468.511719-.839844.621094-1.183594.621094s-.828124-.109375-1.179687-.621094l-16.183594-23.613281c-2.128906-3.109375-5.292969-5.40625-8.90625-6.472657l-27.460937-8.09375c-.597656-.175781-.847656-.605468-.957032-.933593-.105468-.328125-.152343-.820313.230469-1.316407l17.457031-22.6875c2.296876-2.988281 3.503907-6.707031 3.398438-10.472656l-.785156-28.613281c-.015625-.625.3125-.996094.589844-1.199219.195312-.140625.476562-.28125.828124-.28125.148438 0 .316407.027344.492188.089844l26.976562 9.59375c3.546876 1.261719 7.457032 1.261719 11.007813 0v-.003906l26.972656-9.589844c.589844-.210938 1.042969-.011719 1.320313.191406.277344.199219.605468.574219.589844 1.195313l-.726563 26.457031c0 .019531-.003906.039062-.003906.0625l-.058594 2.097656c-.101563 3.765625 1.105469 7.484375 3.402344 10.472656zm134.125-98.085937c-.398438 3.066406-2.207031 5.632813-4.964844 7.039063-2.757812 1.402343-5.898437 1.359374-8.613281-.121094l-47.121094-25.664063c-3.570312-1.945312-7.578125-2.949219-11.613281-2.949219-1.476562 0-2.960938.136719-4.429688.410157l-52.742187 9.847656c-3.039063.566406-6.039063-.363281-8.226563-2.550781s-3.117187-5.1875-2.550781-8.230469l9.847657-52.742187c1.019531-5.460938.117187-11.160157-2.542969-16.042969l-25.660157-47.117188c-1.480468-2.714843-1.523437-5.855469-.121093-8.613281 1.40625-2.757812 3.972656-4.566406 7.039062-4.96875l53.207031-6.929688c5.511719-.71875 10.648438-3.339843 14.472657-7.375l36.878906-38.96875c2.125-2.246093 5.097656-3.257812 8.15625-2.773437 3.054687.484375 5.570313 2.363281 6.902344 5.160156l23.03125 48.457031c2.386719 5.019532 6.464843 9.097657 11.484375 11.484376l48.457031 23.035156c2.796875 1.328125 4.675781 3.84375 5.160156 6.898437.484375 3.058594-.527343 6.03125-2.773437 8.15625l-38.96875 36.882813c-4.039063 3.820312-6.65625 8.960937-7.375 14.472656zm-10.886719-124.21875c-4.078125-.714844-7.96875 2.003906-8.691406 6.082031l-1.183594 6.710938c-.71875 4.082031 2.003907 7.96875 6.085938 8.691406.441406.078125.878906.113281 1.308593.113281 3.574219 0 6.738282-2.558593 7.378907-6.199219l1.183593-6.710937c.71875-4.078125-2.003906-7.96875-6.082031-8.6875zm-37.023437 3.3125c-1.546875 1.25-3.550782 1.769531-5.5 1.425781-1.949219-.347656-3.65625-1.519531-4.683594-3.222656-2.136719-3.546875-6.746094-4.691406-10.292969-2.550781-3.546875 2.136719-4.691406 6.746093-2.554687 10.292969 3.265625 5.417968 8.707031 9.152343 14.925781 10.25 1.261719.222656 2.53125.332031 3.792969.332031 4.957031 0 9.816406-1.691407 13.738281-4.859375 3.222656-2.601563 3.722656-7.324219 1.121094-10.546875-2.601563-3.222657-7.324219-3.722657-10.546875-1.121094zm0 0"/></svg>