<svg height="474pt" viewBox="0 -11 474 474" width="474pt" xmlns="http://www.w3.org/2000/svg"><path d="m467 191.441406v12.757813c0 17.617187-14.28125 31.902343-31.898438 31.902343-17.621093 0-31.902343-14.285156-31.902343-31.902343v-12.757813c0-17.621094 14.28125-31.902344 31.902343-31.902344 17.617188 0 31.898438 14.28125 31.898438 31.902344zm0 0" fill="#00efd1"/><path d="m423.109375 376.769531v68.652344h-175.847656v-67.5c0-31.203125 25.296875-56.5 56.5-56.5l31.417969 30.566406 32.582031-30.566406c30.566406-.003906 55.347656 24.777344 55.347656 55.347656zm0 0" fill="#00acea"/><path d="m367.089844 246.898438v12.761718c0 17.621094-14.285156 31.90625-31.90625 31.90625s-31.902344-14.285156-31.902344-31.90625v-12.761718c0-17.617188 14.28125-31.902344 31.902344-31.902344s31.90625 14.285156 31.90625 31.902344zm0 0" fill="#00acea"/><path d="m367.089844 108.230469v12.769531c0 17.621094-14.285156 31.90625-31.90625 31.90625s-31.902344-14.285156-31.902344-31.90625v-12.769531c0-17.621094 14.28125-31.90625 31.902344-31.90625s31.90625 14.285156 31.90625 31.90625zm0 0" fill="#fedb41"/><path d="m268.898438 191.441406v12.757813c0 17.617187-14.28125 31.902343-31.898438 31.902343s-31.898438-14.285156-31.898438-31.902343v-12.757813c0-17.621094 14.28125-31.902344 31.898438-31.902344s31.898438 14.28125 31.898438 31.902344zm0 0" fill="#00efd1"/><path d="m268.898438 38.898438v12.761718c0 17.617188-14.28125 31.898438-31.898438 31.898438s-31.898438-14.28125-31.898438-31.898438v-12.761718c0-17.617188 14.28125-31.898438 31.898438-31.898438s31.898438 14.28125 31.898438 31.898438zm0 0" fill="#d4e1f4"/><path d="m225.878906 376.769531v68.652344h-175.847656v-67.5c0-31.199219 25.289062-56.492187 56.488281-56.5l31.429688 30.566406 32.582031-30.566406c30.566406-.003906 55.347656 24.777344 55.347656 55.347656zm0 0" fill="#00acea"/><path d="m169.851562 246.898438v12.761718c0 17.617188-14.285156 31.898438-31.902343 31.898438-17.617188 0-31.898438-14.28125-31.898438-31.898438v-12.761718c0-17.617188 14.28125-31.898438 31.898438-31.898438 17.617187 0 31.902343 14.28125 31.902343 31.898438zm0 0" fill="#00acea"/><path d="m169.851562 108.230469v12.769531c0 17.617188-14.285156 31.898438-31.902343 31.898438-17.617188 0-31.898438-14.28125-31.898438-31.898438v-12.769531c0-17.617188 14.28125-31.902344 31.898438-31.902344 17.617187 0 31.902343 14.285156 31.902343 31.902344zm0 0" fill="#fedb41"/><path d="m70.800781 191.441406v12.757813c0 17.617187-14.28125 31.902343-31.902343 31.902343-17.617188 0-31.898438-14.285156-31.898438-31.902343v-12.757813c0-17.621094 14.28125-31.902344 31.898438-31.902344 17.621093 0 31.902343 14.28125 31.902343 31.902344zm0 0" fill="#00efd1"/><g fill="#083863"><path d="m77.800781 204.199219v-12.757813c0-21.484375-17.417969-38.902344-38.902343-38.902344-21.480469 0-38.898438 17.417969-38.898438 38.902344v12.757813c0 21.484375 17.417969 38.902343 38.898438 38.902343 21.484374 0 38.902343-17.417968 38.902343-38.902343zm-14 0c0 13.753906-11.148437 24.902343-24.902343 24.902343-13.75 0-24.898438-11.148437-24.898438-24.902343v-12.757813c0-13.753906 11.148438-24.902344 24.898438-24.902344 13.753906 0 24.902343 11.148438 24.902343 24.902344zm0 0"/><path d="m335.179688 298.570312c21.480468-.023437 38.886718-17.429687 38.910156-38.910156v-12.761718c0-21.484376-17.417969-38.902344-38.90625-38.902344-21.484375 0-38.902344 17.417968-38.902344 38.902344v12.761718c.019531 21.476563 17.421875 38.882813 38.898438 38.910156zm-24.898438-51.671874c0-13.753907 11.148438-24.902344 24.902344-24.902344s24.90625 11.148437 24.90625 24.902344v12.761718c0 13.753906-11.152344 24.90625-24.90625 24.90625s-24.90625-11.152344-24.90625-24.90625v-12.761718zm0 0"/><path d="m275.898438 204.199219v-12.757813c0-21.484375-17.414063-38.902344-38.898438-38.902344s-38.898438 17.417969-38.898438 38.902344v12.757813c0 21.484375 17.414063 38.902343 38.898438 38.902343s38.898438-17.417968 38.898438-38.902343zm-14 0c0 13.753906-11.148438 24.902343-24.898438 24.902343s-24.898438-11.148437-24.898438-24.902343v-12.757813c0-13.753906 11.148438-24.902344 24.898438-24.902344s24.898438 11.148438 24.898438 24.902344zm0 0"/><path d="m435.101562 152.53125c-21.476562.027344-38.878906 17.433594-38.902343 38.910156v12.757813c0 21.484375 17.417969 38.902343 38.902343 38.902343 21.480469 0 38.898438-17.417968 38.898438-38.902343v-12.757813c.003906-21.488281-17.414062-38.910156-38.898438-38.910156zm24.898438 51.667969c0 13.753906-11.148438 24.902343-24.898438 24.902343-13.753906 0-24.902343-11.148437-24.902343-24.902343v-12.757813c0-13.753906 11.148437-24.902344 24.902343-24.902344 13.75 0 24.898438 11.148438 24.898438 24.902344zm0 0"/><path d="m137.949219 159.898438c21.476562-.023438 38.878906-17.425782 38.902343-38.898438v-12.769531c0-21.484375-17.417968-38.902344-38.902343-38.902344s-38.898438 17.417969-38.898438 38.902344v12.769531c.023438 21.472656 17.425781 38.875 38.898438 38.898438zm-24.898438-51.667969c0-13.753907 11.148438-24.902344 24.898438-24.902344 13.753906 0 24.902343 11.148437 24.902343 24.902344v12.769531c0 13.75-11.148437 24.898438-24.902343 24.898438-13.75 0-24.898438-11.148438-24.898438-24.898438zm0 0"/><path d="m335.179688 159.898438c21.476562-.019532 38.882812-17.421876 38.910156-38.898438v-12.769531c0-21.488281-17.417969-38.90625-38.90625-38.90625-21.484375 0-38.902344 17.417969-38.902344 38.90625v12.769531c.023438 21.472656 17.425781 38.875 38.898438 38.898438zm-24.898438-51.667969c0-13.753907 11.148438-24.90625 24.902344-24.90625s24.90625 11.152343 24.90625 24.90625v12.769531c0 13.753906-11.152344 24.90625-24.90625 24.90625s-24.90625-11.152344-24.90625-24.90625v-12.769531zm0 0"/><path d="m237 90.558594c21.472656-.023438 38.875-17.425782 38.898438-38.898438v-12.761718c0-21.480469-17.414063-38.898438-38.898438-38.898438s-38.898438 17.417969-38.898438 38.898438v12.761718c.023438 21.472656 17.425782 38.875 38.898438 38.898438zm-24.898438-51.660156c0-13.75 11.148438-24.898438 24.898438-24.898438s24.898438 11.148438 24.898438 24.898438v12.761718c0 13.75-11.148438 24.898438-24.898438 24.898438s-24.898438-11.148438-24.898438-24.898438zm0 0"/><path d="m137.949219 298.570312c21.476562-.027343 38.878906-17.433593 38.902343-38.910156v-12.761718c0-21.480469-17.417968-38.898438-38.902343-38.898438s-38.898438 17.417969-38.898438 38.898438v12.761718c.019531 21.476563 17.421875 38.882813 38.898438 38.910156zm-24.898438-51.671874c0-13.75 11.148438-24.898438 24.898438-24.898438 13.753906 0 24.902343 11.148438 24.902343 24.898438v12.761718c0 13.75-11.148437 24.898438-24.902343 24.898438-13.75 0-24.898438-11.148438-24.898438-24.898438zm0 0"/><path d="m170.53125 314.421875c-1.78125 0-3.496094.679687-4.792969 1.898437l-27.699219 25.992188-26.640624-25.910156c-1.304688-1.269532-3.054688-1.980469-4.878907-1.980469-35.0625.007813-63.484375 28.433594-63.488281 63.5v67.5c0 3.863281 3.132812 7 7 7h175.847656c3.867188 0 7-3.136719 7-7v-68.652344c-.039062-34.417969-27.929687-62.3125-62.347656-62.347656zm48.347656 124h-161.847656v-60.5c.003906-26.261719 20.507812-47.949219 46.722656-49.425781l29.316406 28.515625c2.683594 2.605469 6.941407 2.644531 9.667969.085937l30.480469-28.601562c25.605469 1.457031 45.628906 22.628906 45.660156 48.277344zm0 0"/><path d="m367.761719 314.421875c-1.78125 0-3.496094.679687-4.792969 1.898437l-27.699219 25.992188-26.625-25.90625c-1.308593-1.269531-3.058593-1.980469-4.882812-1.980469-35.066407 0-63.496094 28.429688-63.5 63.5v67.5c0 3.863281 3.136719 7 7 7h175.851562c3.867188 0 7-3.136719 7-7v-68.65625c-.039062-34.417969-27.933593-62.3125-62.351562-62.347656zm48.347656 124h-161.847656v-60.5c.003906-26.265625 20.511719-47.953125 46.730469-49.425781l29.308593 28.515625c2.679688 2.609375 6.941407 2.644531 9.671875.085937l30.480469-28.601562c25.601563 1.460937 45.625 22.628906 45.65625 48.273437zm0 0"/></g></svg>