<?xml version="1.0"?>
<svg xmlns="http://www.w3.org/2000/svg" xmlns:xlink="http://www.w3.org/1999/xlink" xmlns:svgjs="http://svgjs.com/svgjs" version="1.1" width="512" height="512" x="0" y="0" viewBox="0 0 512 512" style="enable-background:new 0 0 512 512" xml:space="preserve" class=""><g><path xmlns="http://www.w3.org/2000/svg" d="m512 256c0 68.378906-26.628906 132.671875-74.980469 181.019531-48.347656 48.351563-112.640625 74.980469-181.019531 74.980469s-132.671875-26.628906-181.019531-74.980469c-48.351563-48.347656-74.980469-112.640625-74.980469-181.019531s26.628906-132.671875 74.980469-181.019531c48.347656-48.351563 112.640625-74.980469 181.019531-74.980469s132.671875 26.628906 181.019531 74.980469c48.351563 48.347656 74.980469 112.640625 74.980469 181.019531zm0 0" fill="#2eb0e1" data-original="#55fbff" style="" class=""/><path xmlns="http://www.w3.org/2000/svg" d="m512 256c0 68.378906-26.628906 132.671875-74.980469 181.019531-48.347656 48.351563-112.640625 74.980469-181.019531 74.980469v-512c68.378906 0 132.671875 26.628906 181.019531 74.980469 48.351563 48.347656 74.980469 112.640625 74.980469 181.019531zm0 0" fill="#2fbbf0" data-original="#00d9e0" style="" class=""/><path xmlns="http://www.w3.org/2000/svg" d="m403.078125 270.460938c-13.546875 24.769531-34.207031 44.210937-54.1875 63.007812-3.449219 3.25-6.699219 6.3125-9.929687 9.410156-12.242188 11.75-24.601563 23.050782-36.550782 33.980469-11.832031 10.8125-24.050781 21.992187-36.019531 33.480469l-10.390625 9.980468-10.390625-9.980468c-11.96875-11.488282-24.199219-22.667969-36.019531-33.480469-11.949219-10.929687-24.320313-22.230469-36.550782-33.980469-3.230468-3.097656-6.488281-6.160156-9.929687-9.410156-19.980469-18.796875-40.640625-38.238281-54.1875-63.007812-17.980469-32.882813-17.460937-69.429688 1.429687-100.28125 23.4375-38.28125 56.207032-46.53125 79.578126-46.699219 19.789062-.152344 39.371093 5.519531 56.609374 16.398437l9.460938 5.921875 9.5-5.949219c17.199219-10.851562 36.730469-16.523437 56.570312-16.371093 23.371094.167969 56.140626 8.417969 79.578126 46.699219 18.890624 30.851562 19.410156 67.398437 1.429687 100.28125zm0 0" fill="#ff73af" data-original="#ff73af" style="" class=""/><path xmlns="http://www.w3.org/2000/svg" d="m403.078125 270.460938c-13.546875 24.769531-34.207031 44.210937-54.1875 63.007812-3.449219 3.25-6.699219 6.3125-9.929687 9.410156-12.242188 11.75-24.601563 23.050782-36.550782 33.980469-11.832031 10.8125-24.050781 21.992187-36.019531 33.480469l-10.390625 9.980468v-274.519531l9.5-5.949219c17.199219-10.851562 36.730469-16.523437 56.570312-16.371093 23.371094.167969 56.140626 8.417969 79.578126 46.699219 18.890624 30.851562 19.410156 67.398437 1.429687 100.28125zm0 0" fill="#ff318e" data-original="#ff318e" style="" class=""/></g></svg>
