<svg data-v-fde0c5aa="" xmlns="http://www.w3.org/2000/svg" viewBox="0 0 300 300" class="iconLeftSlogan"><!----><defs data-v-fde0c5aa=""><!----></defs><rect data-v-fde0c5aa="" fill="#053881" x="0" y="0" width="300px" height="300px" class="logo-background-square"></rect><defs data-v-fde0c5aa=""><!----></defs><g data-v-fde0c5aa="" id="56237bf2-05a1-4955-98ae-2285db2429cb" fill="#ffffff" transform="matrix(2.6419006921661903,0,0,2.6419006921661903,124.54975061821237,121.03115364122861)"><path d="M6.22 3.70L6.22 3.70L6.22 3.70Q6.22 3.02 5.73 2.77L5.73 2.77L5.73 2.77Q5.24 2.52 4.07 2.52L4.07 2.52L4.07 4.94L4.07 4.94Q5.17 4.94 5.69 4.67L5.69 4.67L5.69 4.67Q6.22 4.40 6.22 3.70ZM4.07 7.04L4.07 8.40L4.07 8.40Q4.07 10.50 2.44 10.50L2.44 10.50L2.44 10.50Q1.61 10.50 1.23 10.06L1.23 10.06L1.23 10.06Q0.84 9.62 0.84 8.50L0.84 8.50L0.84 2.59L0.84 2.59Q0.84 1.78 1.28 1.35L1.28 1.35L1.28 1.35Q1.72 0.92 2.44 0.92L2.44 0.92L5.38 0.92L5.38 0.92Q7.10 0.92 8.16 1.73L8.16 1.73L8.16 1.73Q9.23 2.53 9.23 3.79L9.23 3.79L9.23 3.79Q9.23 4.75 8.83 5.29L8.83 5.29L8.83 5.29Q8.43 5.82 7.55 6.08L7.55 6.08L7.55 6.08Q8.22 6.12 8.79 6.73L8.79 6.73L8.79 6.73Q9.37 7.34 9.37 8.25L9.37 8.25L9.37 8.25Q9.37 9.17 9.19 9.67L9.19 9.67L9.19 9.67Q9.02 10.16 8.69 10.33L8.69 10.33L8.69 10.33Q8.37 10.50 7.78 10.50L7.78 10.50L7.78 10.50Q6.96 10.50 6.57 10.16L6.57 10.16L6.57 10.16Q6.19 9.81 6.19 9.11L6.19 9.11L6.19 9.11Q6.19 8.25 6.02 7.78L6.02 7.78L6.02 7.78Q5.85 7.31 5.59 7.17L5.59 7.17L5.59 7.17Q5.32 7.03 4.84 7.03L4.84 7.03L4.07 7.04ZM13.23 10.58L13.23 10.58L13.23 10.58Q12.12 10.58 11.40 9.68L11.40 9.68L11.40 9.68Q10.67 8.78 10.67 7.21L10.67 7.21L10.67 7.21Q10.67 5.61 11.39 4.67L11.39 4.67L11.39 4.67Q12.11 3.72 13.23 3.72L13.23 3.72L13.23 3.72Q14.36 3.72 15.33 4.52L15.33 4.52L15.33 4.52Q15.71 3.82 16.55 3.82L16.55 3.82L16.55 3.82Q17.30 3.82 17.72 4.15L17.72 4.15L17.72 4.15Q18.14 4.48 18.14 5.36L18.14 5.36L18.14 9.00L18.14 9.00Q18.14 9.84 17.79 10.17L17.79 10.17L17.79 10.17Q17.44 10.50 16.56 10.50L16.56 10.50L16.56 10.50Q15.64 10.50 15.34 9.98L15.34 9.98L15.34 9.98Q14.45 10.58 13.23 10.58ZM15.13 8.48L15.13 5.87L15.13 5.87Q14.90 5.46 14.52 5.46L14.52 5.46L14.52 5.46Q14.15 5.46 13.93 5.99L13.93 5.99L13.93 5.99Q13.71 6.52 13.71 7.21L13.71 7.21L13.71 7.21Q13.71 7.85 13.92 8.36L13.92 8.36L13.92 8.36Q14.13 8.86 14.50 8.86L14.50 8.86L14.50 8.86Q14.90 8.86 15.13 8.48L15.13 8.48ZM22.55 2.48L22.55 4.40L22.55 4.40Q23.48 3.71 24.56 3.71L24.56 3.71L24.56 3.71Q25.65 3.71 26.38 4.63L26.38 4.63L26.38 4.63Q27.10 5.56 27.10 6.97L27.10 6.97L27.10 6.97Q27.10 8.68 26.00 9.64L26.00 9.64L26.00 9.64Q24.89 10.60 23.13 10.60L23.13 10.60L23.13 10.60Q22.05 10.60 21.25 10.29L21.25 10.29L21.25 10.29Q20.44 9.98 19.99 9.37L19.99 9.37L19.99 9.37Q19.53 8.75 19.52 7.88L19.52 7.88L19.49 2.60L19.49 2.60Q19.49 1.74 19.91 1.33L19.91 1.33L19.91 1.33Q20.33 0.92 21.03 0.92L21.03 0.92L21.03 0.92Q21.81 0.92 22.18 1.29L22.18 1.29L22.18 1.29Q22.55 1.67 22.55 2.48L22.55 2.48ZM22.57 8.36L22.57 8.36L22.57 8.36Q22.82 8.83 23.27 8.83L23.27 8.83L23.27 8.83Q23.65 8.83 23.86 8.36L23.86 8.36L23.86 8.36Q24.07 7.88 24.07 7.27L24.07 7.27L24.07 7.27Q24.07 6.93 24.01 6.61L24.01 6.61L24.01 6.61Q23.95 6.29 23.86 6.03L23.86 6.03L23.86 6.03Q23.76 5.77 23.60 5.61L23.60 5.61L23.60 5.61Q23.45 5.45 23.25 5.45L23.25 5.45L23.25 5.45Q22.82 5.45 22.57 5.96L22.57 5.96L22.57 5.96Q22.57 6.15 22.57 7.01L22.57 7.01L22.57 7.01Q22.57 7.87 22.57 8.36ZM28.97 7.50L28.97 7.50L28.97 5.85L28.97 5.85Q28.62 5.84 28.41 5.73L28.41 5.73L28.41 5.73Q28.20 5.63 28.11 5.46L28.11 5.46L28.11 5.46Q28.01 5.29 28.01 5.04L28.01 5.04L28.01 5.04Q28.01 4.24 28.98 4.17L28.98 4.17L28.98 2.87L28.98 2.87Q28.98 2.34 29.75 1.91L29.75 1.91L29.75 1.91Q30.52 1.48 31.28 1.48L31.28 1.48L31.28 1.48Q31.74 1.48 31.88 1.75L31.88 1.75L31.88 1.75Q32.02 2.02 32.02 2.55L32.02 2.55L32.03 4.16L32.41 4.16L32.41 4.16Q33.18 4.16 33.47 4.36L33.47 4.36L33.47 4.36Q33.75 4.56 33.75 5.10L33.75 5.10L33.75 5.10Q33.75 5.32 33.67 5.47L33.67 5.47L33.67 5.47Q33.59 5.63 33.40 5.71L33.40 5.71L33.40 5.71Q33.21 5.80 32.94 5.83L32.94 5.83L32.94 5.83Q32.68 5.87 32.28 5.87L32.28 5.87L32.03 5.87L32.03 7.41L32.03 7.41Q32.03 7.63 32.05 7.78L32.05 7.78L32.05 7.78Q32.07 7.92 32.12 8.01L32.12 8.01L32.12 8.01Q32.16 8.09 32.24 8.12L32.24 8.12L32.24 8.12Q32.31 8.15 32.42 8.15L32.42 8.15L32.42 8.15Q32.59 8.15 32.70 8.03L32.70 8.03L32.70 8.03Q32.82 7.91 32.88 7.76L32.88 7.76L32.88 7.76Q32.94 7.62 33.05 7.50L33.05 7.50L33.05 7.50Q33.15 7.38 33.29 7.38L33.29 7.38L33.29 7.38Q33.61 7.38 33.79 7.53L33.79 7.53L33.79 7.53Q33.96 7.69 33.96 7.91L33.96 7.91L33.96 7.91Q33.96 8.29 33.82 8.72L33.82 8.72L33.82 8.72Q33.67 9.16 33.39 9.56L33.39 9.56L33.39 9.56Q33.11 9.97 32.61 10.23L32.61 10.23L32.61 10.23Q32.12 10.50 31.50 10.50L31.50 10.50L31.50 10.50Q30.11 10.50 29.54 9.80L29.54 9.80L29.54 9.80Q28.97 9.10 28.97 7.50ZM37.79 10.58L37.79 10.58L37.79 10.58Q36.68 10.58 35.95 9.68L35.95 9.68L35.95 9.68Q35.22 8.78 35.22 7.21L35.22 7.21L35.22 7.21Q35.22 5.61 35.95 4.67L35.95 4.67L35.95 4.67Q36.67 3.72 37.79 3.72L37.79 3.72L37.79 3.72Q38.92 3.72 39.89 4.52L39.89 4.52L39.89 4.52Q40.26 3.82 41.10 3.82L41.10 3.82L41.10 3.82Q41.86 3.82 42.28 4.15L42.28 4.15L42.28 4.15Q42.70 4.48 42.70 5.36L42.70 5.36L42.70 9.00L42.70 9.00Q42.70 9.84 42.35 10.17L42.35 10.17L42.35 10.17Q42 10.50 41.12 10.50L41.12 10.50L41.12 10.50Q40.19 10.50 39.90 9.98L39.90 9.98L39.90 9.98Q39.00 10.58 37.79 10.58ZM39.69 8.48L39.69 5.87L39.69 5.87Q39.45 5.46 39.07 5.46L39.07 5.46L39.07 5.46Q38.71 5.46 38.49 5.99L38.49 5.99L38.49 5.99Q38.26 6.52 38.26 7.21L38.26 7.21L38.26 7.21Q38.26 7.85 38.47 8.36L38.47 8.36L38.47 8.36Q38.68 8.86 39.06 8.86L39.06 8.86L39.06 8.86Q39.45 8.86 39.69 8.48L39.69 8.48ZM51.27 6.55L51.27 6.55L51.27 6.55Q51.27 8.95 51.13 9.90L51.13 9.90L51.13 9.90Q51.02 10.75 50.78 11.38L50.78 11.38L50.78 11.38Q50.54 12.00 50.11 12.48L50.11 12.48L50.11 12.48Q49.67 12.96 49 13.20L49 13.20L49 13.20Q48.33 13.44 47.40 13.44L47.40 13.44L47.40 13.44Q46.66 13.44 46.02 13.22L46.02 13.22L46.02 13.22Q45.39 13.01 45.02 12.69L45.02 12.69L45.02 12.69Q44.65 12.38 44.44 12.07L44.44 12.07L44.44 12.07Q44.23 11.76 44.23 11.54L44.23 11.54L44.23 11.54Q44.23 11.31 44.37 11.12L44.37 11.12L44.37 11.12Q44.52 10.93 44.77 10.93L44.77 10.93L44.77 10.93Q44.95 10.93 45.20 11.05L45.20 11.05L45.20 11.05Q45.44 11.16 45.67 11.30L45.67 11.30L45.67 11.30Q45.89 11.44 46.20 11.55L46.20 11.55L46.20 11.55Q46.51 11.66 46.80 11.66L46.80 11.66L46.80 11.66Q47.56 11.66 47.87 11.28L47.87 11.28L47.87 11.28Q48.19 10.91 48.19 10.21L48.19 10.21L48.19 10.21Q47.95 10.30 47.73 10.37L47.73 10.37L47.73 10.37Q47.50 10.44 47.29 10.49L47.29 10.49L47.29 10.49Q47.08 10.53 46.89 10.54L46.89 10.54L46.89 10.54Q46.70 10.56 46.52 10.56L46.52 10.56L46.52 10.56Q45.70 10.56 45.11 10.09L45.11 10.09L45.11 10.09Q44.52 9.63 44.26 8.95L44.26 8.95L44.26 8.95Q44.00 8.27 44.00 7.49L44.00 7.49L44.00 7.49Q44.00 6.71 44.02 6.16L44.02 6.16L44.02 6.16Q44.04 5.61 44.11 5.19L44.11 5.19L44.11 5.19Q44.18 4.76 44.27 4.51L44.27 4.51L44.27 4.51Q44.37 4.26 44.53 4.09L44.53 4.09L44.53 4.09Q44.70 3.93 44.91 3.88L44.91 3.88L44.91 3.88Q45.12 3.82 45.42 3.82L45.42 3.82L45.42 3.82Q46.30 3.82 46.66 4.12L46.66 4.12L46.66 4.12Q47.01 4.42 47.01 5.07L47.01 5.07L47.03 7.32L47.03 7.32Q47.03 7.55 47.03 7.65L47.03 7.65L47.03 7.65Q47.03 7.76 47.05 7.91L47.05 7.91L47.05 7.91Q47.07 8.06 47.10 8.13L47.10 8.13L47.10 8.13Q47.14 8.20 47.20 8.28L47.20 8.28L47.20 8.28Q47.26 8.36 47.37 8.39L47.37 8.39L47.37 8.39Q47.47 8.41 47.63 8.41L47.63 8.41L47.63 8.41Q48.05 8.41 48.15 8.18L48.15 8.18L48.15 8.18Q48.26 7.95 48.26 7.34L48.26 7.34L48.27 5.07L48.27 5.07Q48.27 4.63 48.42 4.37L48.42 4.37L48.42 4.37Q48.57 4.10 48.92 3.96L48.92 3.96L48.92 3.96Q49.27 3.82 49.87 3.82L49.87 3.82L49.87 3.82Q50.23 3.82 50.49 3.94L50.49 3.94L50.49 3.94Q50.75 4.06 50.90 4.25L50.90 4.25L50.90 4.25Q51.06 4.44 51.13 4.81L51.13 4.81L51.13 4.81Q51.21 5.18 51.24 5.56L51.24 5.56L51.24 5.56Q51.27 5.94 51.27 6.55Z"></path></g><defs data-v-fde0c5aa=""><!----></defs><g data-v-fde0c5aa="" id="4c433ba7-6c5b-4072-a32b-3a274655d3bb" stroke="none" fill="#07A0B4" transform="matrix(1.271901238990994,0,0,1.271901238990994,36.183634299440534,109.29842255748017)"><path d="M60 32a4.995 4.995 0 0 0-2.979-4.566 4 4 0 1 0-4.042 0 4.998 4.998 0 0 0-2.649 2.822l-4.436 4.435a2.961 2.961 0 0 0-3.963.144l-5.207-3.72a3.472 3.472 0 0 0-2.273-1.975 4 4 0 1 0-4.902 0 3.459 3.459 0 0 0-2.072 1.606l-5.555 3.968a2.942 2.942 0 0 0-3.816-.023l-4.436-4.435a4.998 4.998 0 0 0-2.649-2.822 4 4 0 1 0-4.042 0A4.995 4.995 0 0 0 4 32v9h10v-7.586l3.054 3.054a2.999 2.999 0 1 0 5.89-.026L27 33.544V44h10V33.77l4 2.858.044-.061a2.997 2.997 0 1 0 5.902-.1L50 33.415V41h10zM32.828 10.586l-.707.707-.707-.707a2 2 0 1 0-2.828 2.828l3.535 3.536 3.536-3.536a2 2 0 0 0-2.829-2.828zM57.686 3.59L57 4.302l-.686-.712a1.892 1.892 0 0 0-2.745 0 2.069 2.069 0 0 0 0 2.849L57 10l3.431-3.561a2.069 2.069 0 0 0 0-2.849 1.892 1.892 0 0 0-2.745 0zM7 10l3.431-3.561a2.069 2.069 0 0 0 0-2.849 1.892 1.892 0 0 0-2.745 0L7 4.302l-.686-.712a1.892 1.892 0 0 0-2.745 0 2.069 2.069 0 0 0 0 2.849z"></path><path d="M6.32 16.482l1.711 1.036a28.008 28.008 0 0 1 47.938 0l1.71-1.036a30.009 30.009 0 0 0-51.359 0zM57.036 44.551a28.011 28.011 0 0 1-50.072 0l-1.787.898a30.01 30.01 0 0 0 53.646 0z"></path></g><defs data-v-fde0c5aa=""><!----></defs><g data-v-fde0c5aa="" id="279e9bbf-ae6d-4f51-8240-eb8cb1a196e0" fill="#ffffff" transform="matrix(1.331644664151205,0,0,1.331644664151205,125.82347960484157,165.45966549674966)"><path d="M3.72 7.71L3.72 7.71L3.72 7.71Q3.72 8.12 3.96 8.36L3.96 8.36L3.96 8.36Q4.20 8.60 4.49 8.60L4.49 8.60L4.49 8.60Q4.84 8.60 5.00 8.41L5.00 8.41L5.00 8.41Q5.15 8.22 5.15 7.71L5.15 7.71L5.15 2.59L5.15 2.59Q5.15 1.74 5.52 1.32L5.52 1.32L5.52 1.32Q5.89 0.91 6.75 0.91L6.75 0.91L6.75 0.91Q7.50 0.91 7.94 1.26L7.94 1.26L7.94 1.26Q8.37 1.61 8.37 2.46L8.37 2.46L8.37 7.66L8.37 7.66Q8.37 9.20 7.44 9.90L7.44 9.90L7.44 9.90Q6.51 10.60 4.70 10.60L4.70 10.60L4.70 10.60Q4.13 10.60 3.64 10.51L3.64 10.51L3.64 10.51Q3.15 10.43 2.77 10.28L2.77 10.28L2.77 10.28Q2.39 10.14 2.08 9.94L2.08 9.94L2.08 9.94Q1.76 9.74 1.55 9.51L1.55 9.51L1.55 9.51Q1.33 9.27 1.16 9.01L1.16 9.01L1.16 9.01Q0.99 8.75 0.90 8.48L0.90 8.48L0.90 8.48Q0.81 8.20 0.76 7.96L0.76 7.96L0.76 7.96Q0.71 7.71 0.71 7.46L0.71 7.46L0.71 7.46Q0.71 6.52 1.03 6.18L1.03 6.18L1.03 6.18Q1.34 5.84 2.27 5.84L2.27 5.84L2.27 5.84Q3.01 5.84 3.41 6.10L3.41 6.10L3.41 6.10Q3.81 6.37 3.81 6.83L3.81 6.83L3.81 6.83Q3.81 6.97 3.77 7.28L3.77 7.28L3.77 7.28Q3.72 7.59 3.72 7.71ZM14.38 7.18L14.38 7.18L14.38 7.18Q14.38 6.45 14.20 5.90L14.20 5.90L14.20 5.90Q14.01 5.35 13.66 5.35L13.66 5.35L13.66 5.35Q13.43 5.35 13.24 5.63L13.24 5.63L13.24 5.63Q13.06 5.91 12.98 6.31L12.98 6.31L12.98 6.31Q12.89 6.72 12.89 7.18L12.89 7.18L12.89 7.18Q12.89 7.90 13.09 8.44L13.09 8.44L13.09 8.44Q13.29 8.97 13.65 8.97L13.65 8.97L13.65 8.97Q14.01 8.97 14.20 8.44L14.20 8.44L14.20 8.44Q14.38 7.91 14.38 7.18ZM13.65 10.60L13.65 10.60L13.65 10.60Q12.56 10.60 11.68 10.21L11.68 10.21L11.68 10.21Q10.81 9.81 10.28 9.03L10.28 9.03L10.28 9.03Q9.76 8.25 9.76 7.20L9.76 7.20L9.76 7.20Q9.76 5.60 10.85 4.66L10.85 4.66L10.85 4.66Q11.94 3.72 13.65 3.72L13.65 3.72L13.65 3.72Q15.36 3.72 16.44 4.66L16.44 4.66L16.44 4.66Q17.51 5.60 17.51 7.20L17.51 7.20L17.51 7.20Q17.51 8.78 16.41 9.69L16.41 9.69L16.41 9.69Q15.32 10.60 13.65 10.60ZM21.70 6.19L21.70 9.00L21.70 9.00Q21.70 9.84 21.35 10.17L21.35 10.17L21.35 10.17Q21 10.50 20.10 10.50L20.10 10.50L20.10 10.50Q19.28 10.50 18.98 10.12L18.98 10.12L18.98 10.12Q18.69 9.73 18.69 8.85L18.69 8.85L18.69 5.40L18.69 5.40Q18.69 4.93 18.86 4.57L18.86 4.57L18.86 4.57Q19.03 4.21 19.35 4.02L19.35 4.02L19.35 4.02Q19.67 3.82 20.10 3.82L20.10 3.82L20.10 3.82Q21.17 3.82 21.50 4.44L21.50 4.44L21.50 4.44Q22.32 3.82 23.07 3.82L23.07 3.82L23.07 3.82Q24.54 3.82 24.54 5.22L24.54 5.22L24.54 5.22Q24.54 5.78 24.22 6.13L24.22 6.13L24.22 6.13Q23.90 6.48 23.38 6.48L23.38 6.48L23.38 6.48Q23.07 6.48 22.88 6.36L22.88 6.36L22.88 6.36Q22.69 6.23 22.53 6.10L22.53 6.10L22.53 6.10Q22.37 5.98 22.16 5.98L22.16 5.98L22.16 5.98Q21.85 5.98 21.70 6.19L21.70 6.19ZM27.80 10.58L27.80 10.58L27.80 10.58Q26.70 10.58 25.97 9.68L25.97 9.68L25.97 9.68Q25.24 8.78 25.24 7.21L25.24 7.21L25.24 7.21Q25.24 5.61 25.96 4.67L25.96 4.67L25.96 4.67Q26.68 3.72 27.80 3.72L27.80 3.72L27.80 3.72Q28.94 3.72 29.90 4.52L29.90 4.52L29.90 4.52Q30.28 3.82 31.12 3.82L31.12 3.82L31.12 3.82Q31.88 3.82 32.30 4.15L32.30 4.15L32.30 4.15Q32.72 4.48 32.72 5.36L32.72 5.36L32.72 9.00L32.72 9.00Q32.72 9.84 32.37 10.17L32.37 10.17L32.37 10.17Q32.02 10.50 31.14 10.50L31.14 10.50L31.14 10.50Q30.21 10.50 29.92 9.98L29.92 9.98L29.92 9.98Q29.02 10.58 27.80 10.58ZM29.71 8.48L29.71 5.87L29.71 5.87Q29.47 5.46 29.09 5.46L29.09 5.46L29.09 5.46Q28.73 5.46 28.50 5.99L28.50 5.99L28.50 5.99Q28.28 6.52 28.28 7.21L28.28 7.21L28.28 7.21Q28.28 7.85 28.49 8.36L28.49 8.36L28.49 8.36Q28.70 8.86 29.08 8.86L29.08 8.86L29.08 8.86Q29.47 8.86 29.71 8.48L29.71 8.48ZM41.29 6.55L41.29 6.55L41.29 6.55Q41.29 8.95 41.15 9.90L41.15 9.90L41.15 9.90Q41.03 10.75 40.80 11.38L40.80 11.38L40.80 11.38Q40.56 12.00 40.12 12.48L40.12 12.48L40.12 12.48Q39.69 12.96 39.02 13.20L39.02 13.20L39.02 13.20Q38.35 13.44 37.42 13.44L37.42 13.44L37.42 13.44Q36.68 13.44 36.04 13.22L36.04 13.22L36.04 13.22Q35.41 13.01 35.04 12.69L35.04 12.69L35.04 12.69Q34.66 12.38 34.45 12.07L34.45 12.07L34.45 12.07Q34.24 11.76 34.24 11.54L34.24 11.54L34.24 11.54Q34.24 11.31 34.39 11.12L34.39 11.12L34.39 11.12Q34.54 10.93 34.79 10.93L34.79 10.93L34.79 10.93Q34.97 10.93 35.22 11.05L35.22 11.05L35.22 11.05Q35.46 11.16 35.69 11.30L35.69 11.30L35.69 11.30Q35.91 11.44 36.22 11.55L36.22 11.55L36.22 11.55Q36.53 11.66 36.82 11.66L36.82 11.66L36.82 11.66Q37.58 11.66 37.89 11.28L37.89 11.28L37.89 11.28Q38.21 10.91 38.21 10.21L38.21 10.21L38.21 10.21Q37.97 10.30 37.74 10.37L37.74 10.37L37.74 10.37Q37.52 10.44 37.31 10.49L37.31 10.49L37.31 10.49Q37.10 10.53 36.91 10.54L36.91 10.54L36.91 10.54Q36.72 10.56 36.54 10.56L36.54 10.56L36.54 10.56Q35.71 10.56 35.13 10.09L35.13 10.09L35.13 10.09Q34.54 9.63 34.28 8.95L34.28 8.95L34.28 8.95Q34.02 8.27 34.02 7.49L34.02 7.49L34.02 7.49Q34.02 6.71 34.04 6.16L34.04 6.16L34.04 6.16Q34.06 5.61 34.13 5.19L34.13 5.19L34.13 5.19Q34.20 4.76 34.29 4.51L34.29 4.51L34.29 4.51Q34.38 4.26 34.55 4.09L34.55 4.09L34.55 4.09Q34.72 3.93 34.93 3.88L34.93 3.88L34.93 3.88Q35.14 3.82 35.43 3.82L35.43 3.82L35.43 3.82Q36.32 3.82 36.67 4.12L36.67 4.12L36.67 4.12Q37.03 4.42 37.03 5.07L37.03 5.07L37.04 7.32L37.04 7.32Q37.04 7.55 37.04 7.65L37.04 7.65L37.04 7.65Q37.04 7.76 37.06 7.91L37.06 7.91L37.06 7.91Q37.09 8.06 37.12 8.13L37.12 8.13L37.12 8.13Q37.16 8.20 37.22 8.28L37.22 8.28L37.22 8.28Q37.28 8.36 37.39 8.39L37.39 8.39L37.39 8.39Q37.49 8.41 37.65 8.41L37.65 8.41L37.65 8.41Q38.07 8.41 38.17 8.18L38.17 8.18L38.17 8.18Q38.28 7.95 38.28 7.34L38.28 7.34L38.29 5.07L38.29 5.07Q38.29 4.63 38.44 4.37L38.44 4.37L38.44 4.37Q38.58 4.10 38.93 3.96L38.93 3.96L38.93 3.96Q39.28 3.82 39.89 3.82L39.89 3.82L39.89 3.82Q40.25 3.82 40.51 3.94L40.51 3.94L40.51 3.94Q40.77 4.06 40.92 4.25L40.92 4.25L40.92 4.25Q41.08 4.44 41.15 4.81L41.15 4.81L41.15 4.81Q41.23 5.18 41.26 5.56L41.26 5.56L41.26 5.56Q41.29 5.94 41.29 6.55ZM53.77 2.46L53.77 8.40L53.77 8.40Q53.77 9.53 53.40 10.02L53.40 10.02L53.40 10.02Q53.02 10.50 52.23 10.50L52.23 10.50L52.23 10.50Q51.34 10.50 51.00 9.94L51.00 9.94L51.00 9.94Q50.09 10.60 48.80 10.60L48.80 10.60L48.80 10.60Q47.71 10.60 46.98 9.70L46.98 9.70L46.98 9.70Q46.26 8.79 46.26 7.22L46.26 7.22L46.26 7.22Q46.26 5.63 46.97 4.68L46.97 4.68L46.97 4.68Q47.68 3.74 48.80 3.74L48.80 3.74L48.80 3.74Q49.81 3.74 50.69 4.38L50.69 4.38L50.69 2.59L50.69 2.59Q50.69 1.74 51.11 1.32L51.11 1.32L51.11 1.32Q51.53 0.91 52.23 0.91L52.23 0.91L52.23 0.91Q53.00 0.91 53.39 1.22L53.39 1.22L53.39 1.22Q53.77 1.53 53.77 2.46L53.77 2.46ZM50.72 8.48L50.72 8.48L50.71 5.87L50.71 5.87Q50.47 5.47 50.09 5.47L50.09 5.47L50.09 5.47Q49.85 5.47 49.66 5.74L49.66 5.74L49.66 5.74Q49.48 6.01 49.38 6.40L49.38 6.40L49.38 6.40Q49.28 6.79 49.28 7.22L49.28 7.22L49.28 7.22Q49.28 7.87 49.49 8.37L49.49 8.37L49.49 8.37Q49.70 8.88 50.08 8.88L50.08 8.88L50.08 8.88Q50.15 8.88 50.22 8.86L50.22 8.86L50.22 8.86Q50.29 8.85 50.34 8.83L50.34 8.83L50.34 8.83Q50.40 8.81 50.46 8.77L50.46 8.77L50.46 8.77Q50.51 8.74 50.55 8.69L50.55 8.69L50.55 8.69Q50.60 8.65 50.64 8.60L50.64 8.60L50.64 8.60Q50.68 8.54 50.72 8.48ZM55.02 1.88L55.02 1.88L55.02 1.88Q55.02 1.41 55.42 1.11L55.42 1.11L55.42 1.11Q55.82 0.81 56.55 0.81L56.55 0.81L56.55 0.81Q58.07 0.81 58.07 1.88L58.07 1.88L58.07 1.88Q58.07 2.46 57.69 2.70L57.69 2.70L57.69 2.70Q57.30 2.94 56.55 2.94L56.55 2.94L56.55 2.94Q55.89 2.94 55.45 2.69L55.45 2.69L55.45 2.69Q55.02 2.44 55.02 1.88ZM58.06 5.36L58.06 9.00L58.06 9.00Q58.06 9.84 57.71 10.17L57.71 10.17L57.71 10.17Q57.36 10.50 56.48 10.50L56.48 10.50L56.48 10.50Q55.65 10.50 55.35 10.12L55.35 10.12L55.35 10.12Q55.05 9.73 55.05 8.85L55.05 8.85L55.05 5.40L55.05 5.40Q55.05 4.69 55.43 4.26L55.43 4.26L55.43 4.26Q55.82 3.82 56.46 3.82L56.46 3.82L56.46 3.82Q57.22 3.82 57.64 4.15L57.64 4.15L57.64 4.15Q58.06 4.48 58.06 5.36L58.06 5.36ZM62.41 2.46L62.41 8.39L62.41 8.39Q62.41 9.52 62.03 10.01L62.03 10.01L62.03 10.01Q61.66 10.50 60.87 10.50L60.87 10.50L60.87 10.50Q60.09 10.50 59.72 10.06L59.72 10.06L59.72 10.06Q59.36 9.62 59.36 8.50L59.36 8.50L59.33 2.59L59.33 2.59Q59.33 2.23 59.41 1.95L59.41 1.95L59.41 1.95Q59.49 1.67 59.62 1.47L59.62 1.47L59.62 1.47Q59.75 1.27 59.95 1.15L59.95 1.15L59.95 1.15Q60.14 1.02 60.38 0.97L60.38 0.97L60.38 0.97Q60.61 0.91 60.87 0.91L60.87 0.91L60.87 0.91Q61.64 0.91 62.03 1.22L62.03 1.22L62.03 1.22Q62.41 1.53 62.41 2.46L62.41 2.46ZM68.22 7.18L68.22 7.18L68.22 7.18Q68.22 6.45 68.04 5.90L68.04 5.90L68.04 5.90Q67.86 5.35 67.51 5.35L67.51 5.35L67.51 5.35Q67.27 5.35 67.09 5.63L67.09 5.63L67.09 5.63Q66.91 5.91 66.82 6.31L66.82 6.31L66.82 6.31Q66.74 6.72 66.74 7.18L66.74 7.18L66.74 7.18Q66.74 7.90 66.93 8.44L66.93 8.44L66.93 8.44Q67.13 8.97 67.49 8.97L67.49 8.97L67.49 8.97Q67.86 8.97 68.04 8.44L68.04 8.44L68.04 8.44Q68.22 7.91 68.22 7.18ZM67.49 10.60L67.49 10.60L67.49 10.60Q66.40 10.60 65.53 10.21L65.53 10.21L65.53 10.21Q64.65 9.81 64.13 9.03L64.13 9.03L64.13 9.03Q63.60 8.25 63.60 7.20L63.60 7.20L63.60 7.20Q63.60 5.60 64.69 4.66L64.69 4.66L64.69 4.66Q65.79 3.72 67.49 3.72L67.49 3.72L67.49 3.72Q69.20 3.72 70.28 4.66L70.28 4.66L70.28 4.66Q71.36 5.60 71.36 7.20L71.36 7.20L71.36 7.20Q71.36 8.78 70.26 9.69L70.26 9.69L70.26 9.69Q69.16 10.60 67.49 10.60ZM76.85 9.34L76.83 6.73L76.83 6.73Q76.83 5.95 76.22 5.95L76.22 5.95L76.22 5.95Q75.92 5.95 75.73 6.20L75.73 6.20L75.73 6.20Q75.54 6.44 75.52 6.85L75.52 6.85L75.52 9.00L75.52 9.00Q75.52 9.86 75.17 10.18L75.17 10.18L75.17 10.18Q74.82 10.50 73.93 10.50L73.93 10.50L73.93 10.50Q73.11 10.50 72.81 10.12L72.81 10.12L72.81 10.12Q72.51 9.73 72.51 8.85L72.51 8.85L72.51 5.40L72.51 5.40Q72.51 4.69 72.89 4.26L72.89 4.26L72.89 4.26Q73.28 3.82 73.92 3.82L73.92 3.82L73.92 3.82Q74.45 3.82 74.82 3.98L74.82 3.98L74.82 3.98Q75.18 4.13 75.36 4.51L75.36 4.51L75.36 4.51Q76.45 3.79 78.02 3.79L78.02 3.79L78.02 3.79Q79.02 3.79 79.46 4.58L79.46 4.58L79.46 4.58Q79.90 5.36 79.90 7.15L79.90 7.15L79.90 7.15Q79.90 8.04 79.86 8.59L79.86 8.59L79.86 8.59Q79.81 9.14 79.72 9.54L79.72 9.54L79.72 9.54Q79.63 9.94 79.44 10.14L79.44 10.14L79.44 10.14Q79.24 10.33 78.98 10.42L78.98 10.42L78.98 10.42Q78.72 10.50 78.32 10.50L78.32 10.50L78.32 10.50Q77.53 10.50 77.19 10.21L77.19 10.21L77.19 10.21Q76.85 9.91 76.85 9.34L76.85 9.34ZM88.52 8.51L88.52 8.51L88.02 8.51L88.02 8.51Q88.02 9.24 87.60 9.87L87.60 9.87L87.60 9.87Q87.18 10.50 86.48 10.50L86.48 10.50L86.48 10.50Q85.69 10.50 85.32 10.06L85.32 10.06L85.32 10.06Q84.95 9.62 84.95 8.50L84.95 8.50L84.95 2.74L84.95 2.74Q84.95 2.14 85.15 1.77L85.15 1.77L85.15 1.77Q85.34 1.40 85.66 1.25L85.66 1.25L85.66 1.25Q85.97 1.09 86.48 1.06L86.48 1.06L86.48 1.06Q87.35 1.06 87.64 1.64L87.64 1.64L87.64 1.64Q87.93 2.23 87.93 3.65L87.93 3.65L87.93 3.65Q87.93 4.76 87.81 5.60L87.81 5.60L87.81 5.60Q87.91 5.91 88.44 5.91L88.44 5.91L88.44 5.91Q88.77 5.91 88.89 5.76L88.89 5.76L88.89 5.76Q89.01 5.61 89.01 5.17L89.01 5.17L89.01 5.17Q89.01 4.51 89.35 4.21L89.35 4.21L89.35 4.21Q89.70 3.92 90.52 3.92L90.52 3.92L90.52 3.92Q91.39 3.92 91.69 4.23L91.69 4.23L91.69 4.23Q91.99 4.55 91.99 5.38L91.99 5.38L91.99 5.38Q91.99 6.24 91.48 6.72L91.48 6.72L91.48 6.72Q90.96 7.20 90.31 7.20L90.31 7.20L90.31 7.20Q90.97 7.20 91.48 7.59L91.48 7.59L91.48 7.59Q91.99 7.99 91.99 8.79L91.99 8.79L91.99 8.79Q91.99 9.86 91.71 10.18L91.71 10.18L91.71 10.18Q91.42 10.50 90.52 10.50L90.52 10.50L90.52 10.50Q89.70 10.50 89.35 10.20L89.35 10.20L89.35 10.20Q89.01 9.90 89.01 9.25L89.01 9.25L89.01 9.25Q89.01 8.93 88.96 8.77L88.96 8.77L88.96 8.77Q88.90 8.61 88.81 8.56L88.81 8.56L88.81 8.56Q88.72 8.51 88.52 8.51ZM97.62 7.18L97.62 7.18L97.62 7.18Q97.62 6.45 97.44 5.90L97.44 5.90L97.44 5.90Q97.26 5.35 96.91 5.35L96.91 5.35L96.91 5.35Q96.67 5.35 96.49 5.63L96.49 5.63L96.49 5.63Q96.31 5.91 96.22 6.31L96.22 6.31L96.22 6.31Q96.14 6.72 96.14 7.18L96.14 7.18L96.14 7.18Q96.14 7.90 96.33 8.44L96.33 8.44L96.33 8.44Q96.53 8.97 96.89 8.97L96.89 8.97L96.89 8.97Q97.26 8.97 97.44 8.44L97.44 8.44L97.44 8.44Q97.62 7.91 97.62 7.18ZM96.89 10.60L96.89 10.60L96.89 10.60Q95.80 10.60 94.93 10.21L94.93 10.21L94.93 10.21Q94.05 9.81 93.53 9.03L93.53 9.03L93.53 9.03Q93.00 8.25 93.00 7.20L93.00 7.20L93.00 7.20Q93.00 5.60 94.09 4.66L94.09 4.66L94.09 4.66Q95.19 3.72 96.89 3.72L96.89 3.72L96.89 3.72Q98.60 3.72 99.68 4.66L99.68 4.66L99.68 4.66Q100.76 5.60 100.76 7.20L100.76 7.20L100.76 7.20Q100.76 8.78 99.66 9.69L99.66 9.69L99.66 9.69Q98.56 10.60 96.89 10.60Z"></path></g></svg>